<svg xmlns="http://www.w3.org/2000/svg" width="24" height="24" viewBox="0 0 24 24" fill="none"><path d="M22 14.5007C22 17.156 19.7794 19 16.95 19H7.95C4.68133 19 2 16.4463 2 13.2857C2 10.5914 3.99327 8.37835 6.70023 7.83513C7.8956 6.10614 9.89176 5 12 5C14.7955 5 17.3453 7.33218 18.1473 10.1107C20.4043 10.5783 22 12.2471 22 14.5007V14.5007ZM16.95 17C18.7485 17 20 15.9607 20 14.5007C20 13.1332 18.9129 12.1422 17.241 11.9962L16.4745 11.9293L16.3428 11.1712C15.9626 8.98338 13.9807 7 12 7C10.4551 7 8.96328 7.89396 8.16461 9.25587L7.91489 9.6817L7.42498 9.74241C5.44404 9.98788 4 11.4839 4 13.2857C4 15.3194 5.76467 17 7.95 17H16.95Z" fill="#BDC1C6" class="WppKZd"></path><path d="M5.17877 8.34953L6.05832 10.1457C6.4794 9.93956 6.94107 9.80237 7.42498 9.74241L7.91489 9.6817L8.16461 9.25587C8.96328 7.89396 10.4551 7 12 7V5C9.8917 5 7.89549 6.1062 6.70013 7.83528C6.16853 7.94221 5.65725 8.11523 5.17877 8.34953V8.34953Z" fill="#4285F4" class="mOayhc"></path><path d="M12 7C13.7119 7 15.4391 8.46277 16.131 10.382L18.0125 9.70363C17.0554 7.04911 14.6359 5 12 5V7Z" fill="#EA4335" class="YLTKge"></path><path d="M18.0125 9.70363L16.131 10.382C16.2268 10.6475 16.2978 10.9124 16.3428 11.1712L16.4745 11.9293L17.241 11.9962C18.9129 12.1422 20 13.1332 20 14.5007H22C22 12.2465 20.4034 10.5773 18.1454 10.1103C18.1055 9.97439 18.0612 9.83874 18.0125 9.70363V9.70363Z" fill="#FBBC04" class="p9ZcCd"></path><path d="M20 14.5007C20 15.1509 19.7674 15.703 19.3349 16.1315L20.7426 17.5522C21.5522 16.7499 22 15.6873 22 14.5007H20Z" fill="#34A853" class="VUxnQe"></path></svg>